D:\school\WTK\thesis\model\3dpredictsim\Results\debug_batch\Pog_s1_tmt_aCst_d05_k1000_ig24_act_TTC_GRF.mot
nRows=20
nColumns=19

name D:\school\WTK\thesis\model\3dpredictsim\Results\debug_batch\Pog_s1_tmt_aCst_d05_k1000_ig24_act_TTC_GRF.mot
datacolumns 19
datarows 20
range 0.0000000000 0.2377849812
endheader
time 	ground_force_vx	ground_force_vy	ground_force_vz	ground_force_px	ground_force_py	ground_force_pz	1_ground_force_vx	1_ground_force_vy	1_ground_force_vz	1_ground_force_px	1_ground_force_py	1_ground_force_pz	ground_torque_x	ground_torque_y	ground_torque_z	1_ground_torque_x	1_ground_torque_y	1_ground_torque_z
        0.0000000000	      -38.9406407677	       31.1944082596	       10.5366743914	        0.2038100778	        0.0000000000	        0.0521139579	      110.2818284909	      429.9725873226	       -1.1061893900	       -0.3581820103	        0.0000000000	       -0.0350477801	        0.0000000000	        0.0000000000	        0.0000000000	        0.0000000000	        0.0000000000	        0.0000000000	
        0.0125149990	     -113.6736889509	      118.6829660798	       45.0100013008	        0.2115773324	        0.0000000000	        0.0501534428	       74.4794257709	      327.0633866706	       -6.9095488013	       -0.3502487566	        0.0000000000	       -0.0319270888	        0.0000000000	        0.0000000000	        0.0000000000	        0.0000000000	        0.0000000000	        0.0000000000	
        0.0250299980	      -61.4598025328	      312.4946798556	       14.8361630541	        0.2168800424	        0.0000000000	        0.0481610200	       39.2829840922	      215.1574435138	      -13.7797382412	       -0.3362482844	        0.0000000000	       -0.0260395890	        0.0000000000	        0.0000000000	        0.0000000000	        0.0000000000	        0.0000000000	        0.0000000000	
        0.0375449970	      -63.8528112287	      526.4013094429	       -6.3998652848	        0.2199159405	        0.0000000000	        0.0479991429	       25.0182617818	      166.5149367679	      -14.3396592352	       -0.3308256294	        0.0000000000	       -0.0234372198	        0.0000000000	        0.0000000000	        0.0000000000	        0.0000000000	        0.0000000000	        0.0000000000	
        0.0500599960	     -113.3150051374	      744.3310375789	      -15.6137339215	        0.2285611053	        0.0000000000	        0.0498993041	       20.0937780877	      123.2661170951	      -16.6582473146	       -0.3304224154	        0.0000000000	       -0.0237043728	        0.0000000000	        0.0000000000	        0.0000000000	        0.0000000000	        0.0000000000	        0.0000000000	
        0.0625749951	     -148.7922070323	      887.1308884595	      -21.2441120636	        0.2369339811	        0.0000000000	        0.0518013657	        7.7654864764	       69.2643195786	      -15.4301776983	       -0.3303687750	        0.0000000000	       -0.0240336134	        0.0000000000	        0.0000000000	        0.0000000000	        0.0000000000	        0.0000000000	        0.0000000000	
        0.0750899941	     -155.3215189756	      912.8788155610	      -21.3466016833	        0.2423594134	        0.0000000000	        0.0529038881	       -5.4437232745	       11.7953566740	       -3.4328708226	       -0.3332555272	        0.0000000000	       -0.0237740542	        0.0000000000	        0.0000000000	        0.0000000000	        0.0000000000	        0.0000000000	        0.0000000000	
        0.0876049931	     -141.3139931542	      879.0133778769	      -20.3217395151	        0.2463084350	        0.0000000000	        0.0535434354	        0.0033990442	       -0.0029108316	       -0.0001031263	        0.0000000000	        0.0000000000	        0.0000000000	        0.0000000000	        0.0000000000	        0.0000000000	        0.0000000000	        0.0000000000	        0.0000000000	
        0.1001199921	     -122.5140706331	      820.9473572068	      -19.1424750524	        0.2499850281	        0.0000000000	        0.0538886184	        0.0037502125	       -0.0027162923	       -0.0002237625	        0.0000000000	        0.0000000000	        0.0000000000	        0.0000000000	        0.0000000000	        0.0000000000	        0.0000000000	        0.0000000000	        0.0000000000	
        0.1126349911	     -107.3861736434	      768.5616588663	      -18.0737603281	        0.2538398464	        0.0000000000	        0.0539754675	        0.0314863143	       -0.0199196551	       -0.0022952501	        0.0000000000	        0.0000000000	        0.0000000000	        0.0000000000	        0.0000000000	        0.0000000000	        0.0000000000	        0.0000000000	        0.0000000000	
        0.1251499901	      -94.4988934610	      728.7977755651	      -17.8214653895	        0.2580611685	        0.0000000000	        0.0538977666	       -0.3121434733	        0.1793211881	        0.0242568354	        0.0000000000	        0.0000000000	        0.0000000000	        0.0000000000	        0.0000000000	        0.0000000000	        0.0000000000	        0.0000000000	        0.0000000000	
        0.1376649891	      -84.2390531712	      699.4481154609	      -17.9913630611	        0.2629474316	        0.0000000000	        0.0536393901	       -0.2874724046	        0.1534889501	        0.0227566117	        0.0000000000	        0.0000000000	        0.0000000000	        0.0000000000	        0.0000000000	        0.0000000000	        0.0000000000	        0.0000000000	        0.0000000000	
        0.1501799881	      -74.4343809244	      674.8577819810	      -18.5145848098	        0.2679192213	        0.0000000000	        0.0533220357	       -0.1712772731	        0.0867800474	        0.0130343853	        0.0000000000	        0.0000000000	        0.0000000000	        0.0000000000	        0.0000000000	        0.0000000000	        0.0000000000	        0.0000000000	        0.0000000000	
        0.1626949872	      -64.8132930952	      651.7426429548	      -19.3980679648	        0.2726073607	        0.0000000000	        0.0530694371	       -0.1130251910	        0.0548359138	        0.0084497439	        0.0000000000	        0.0000000000	        0.0000000000	        0.0000000000	        0.0000000000	        0.0000000000	        0.0000000000	        0.0000000000	        0.0000000000	
        0.1752099862	      -55.9213966719	      631.4997994498	      -19.7278007743	        0.2770904911	        0.0000000000	        0.0529093391	       -0.0917527365	        0.0428962742	        0.0067660013	        0.0000000000	        0.0000000000	        0.0000000000	        0.0000000000	        0.0000000000	        0.0000000000	        0.0000000000	        0.0000000000	        0.0000000000	
        0.1877249852	      -47.8703955054	      614.6181302231	      -20.1356897852	        0.2815379609	        0.0000000000	        0.0527964617	       -0.0914224351	        0.0414420892	        0.0066665065	        0.0000000000	        0.0000000000	        0.0000000000	        0.0000000000	        0.0000000000	        0.0000000000	        0.0000000000	        0.0000000000	        0.0000000000	
        0.2002399842	      -40.7878818885	      601.0870821025	      -20.1614713910	        0.2860550666	        0.0000000000	        0.0527046693	       -0.1082835665	        0.0477950102	        0.0077566574	        0.0000000000	        0.0000000000	        0.0000000000	        0.0000000000	        0.0000000000	        0.0000000000	        0.0000000000	        0.0000000000	        0.0000000000	
        0.2127549832	      -35.0778624204	      591.1166480461	      -19.9634861971	        0.2905701946	        0.0000000000	        0.0526135489	       -0.1485746101	        0.0640420865	        0.0104233290	        0.0000000000	        0.0000000000	        0.0000000000	        0.0000000000	        0.0000000000	        0.0000000000	        0.0000000000	        0.0000000000	        0.0000000000	
        0.2252699822	      -29.8044670194	      584.4898417481	      -19.6727256942	        0.2953032721	        0.0000000000	        0.0524875585	       -0.2270517799	        0.0957508813	        0.0154996861	        0.0000000000	        0.0000000000	        0.0000000000	        0.0000000000	        0.0000000000	        0.0000000000	        0.0000000000	        0.0000000000	        0.0000000000	
        0.2377849812	      -25.4667806824	      580.2403069339	      -19.6271114394	        0.3004117820	        0.0000000000	        0.0522812669	       -0.3666862815	        0.1516154255	        0.0241714539	        0.0000000000	        0.0000000000	        0.0000000000	        0.0000000000	        0.0000000000	        0.0000000000	        0.0000000000	        0.0000000000	        0.0000000000	
